<svg xmlns="http://www.w3.org/2000/svg" width="1126" height="700" fill="none" viewBox="0 0 1126 700"><path fill="url(#a)" fill-rule="evenodd" d="M3.07 58.897C-8.147 30.586 12.754 0 43.34 0h189.892c17.842 0 33.645 10.617 40.272 27.047l151.149 377.142c4.078 10.111 4.078 21.486 0 31.85L329.58 672.89c-14.528 36.147-66.016 36.147-80.544 0L3.069 58.897Zm366.791-1.264C359.665 29.575 380.566 0 410.643 0h165.422c18.351 0 34.664 11.375 40.781 28.31l137.385 377.143c3.313 9.352 3.313 19.716 0 29.322l-82.584 226.74c-13.764 37.916-67.8 37.916-81.564 0L369.861 57.633ZM741.233 0c-30.587 0-51.487 30.586-40.272 58.897L946.927 672.89c14.529 36.147 66.013 36.147 80.543 0l95.07-236.851c4.08-10.364 4.08-21.739 0-31.85L971.396 27.047C964.769 10.617 948.966 0 931.124 0H741.233Z" clip-rule="evenodd"/><defs><linearGradient id="a" x1="563.567" x2="1341.59" y1="-165.278" y2="881.403" gradientUnits="userSpaceOnUse"><stop stop-color="#F213A4"/><stop offset="1" stop-color="#5204BF"/></linearGradient></defs></svg>